<?xml version="1.0" encoding="utf-8"?>
<!-- Generator: Adobe Illustrator 26.5.0, SVG Export Plug-In . SVG Version: 6.00 Build 0)  -->
<svg version="1.1" id="Calque_1" xmlns="http://www.w3.org/2000/svg" xmlns:xlink="http://www.w3.org/1999/xlink" x="0px" y="0px"
	 viewBox="0 0 40 40" style="enable-background:new 0 0 40 40;" xml:space="preserve">
<style type="text/css">
	.st0{fill:#111111;}
	.st1{fill-rule:evenodd;clip-rule:evenodd;fill:#FFFFFF;}
</style>
<path class="st0" d="M22.8,0.5l-0.2,0.2c-1.5,1.4-4.1,1.4-5.6,0l-0.2-0.2L6.2,2.1v24.1c0,1.5,0.7,3.2,2,4.9l0,0
	c1.2,1.4,2.8,2.9,4.8,4.4c1.8,1.3,3.7,2.4,5,3.1c0.6,0.3,1.1,0.6,1.5,0.8l0.2,0.1l0.2-0.1c0.4-0.2,0.9-0.5,1.6-0.8
	c1.3-0.7,3.2-1.7,5-3.1c2-1.4,3.7-2.9,4.8-4.4c1.4-1.7,2.1-3.3,2.1-4.9V2.1L22.8,0.5z M8.6,30.8L8.6,30.8L8.6,30.8L8.6,30.8z"/>
<path class="st1" d="M25.7,21.1c0.8,0.5,2.7,2,3.3,2.8c0.2,0.2,0,0.3-0.1,0.3c-0.3-0.1-0.7-0.3-1.3-0.5c-0.6-0.2-1.4-0.5-2.3-0.8
	c0.6,0.4,2.6,2,3.5,2.8c0.2,0.2,0,0.4-0.1,0.3c-0.2-0.1-0.6-0.2-0.9-0.4c-1.7-0.7-4.8-2-8.1-2c-3.3,0-6.3,1.2-8,2
	c-0.4,0.2-0.7,0.3-1,0.4c-0.2,0.1-0.3-0.1-0.1-0.4c0.7-0.7,2.7-2.4,3.3-2.8c-0.9,0.3-1.7,0.6-2.3,0.9c-0.4,0.2-0.8,0.3-1.1,0.4
	c-0.1,0-0.3-0.1-0.1-0.3c0,0,0.1-0.1,0.1-0.1c0.7-0.7,2.3-2.2,3.1-2.8c-0.4-0.3-0.7-0.7-1-1.1c-2.7-3.3-2.4-7.2-2.2-7.9c0,0,0,0,0,0
	c0,0,0,0,0.1,0c0,0,0,0,0.1,0c0,0,0,0,0,0c0,0,0,0,0,0c0.1,0.4,1.2,4.6,5.5,6c3.4,1.1,6-0.4,7.2-1.4c0.1-0.5,0.2-1.5,0.7-2.4
	c0,0,0,0,0,0c0,0,0,0,0,0c0,0,0,0,0,0c0,0,0,0,0,0l0.4,0.5c0,0,0-0.5,0.2-1c0,0,0,0,0,0c0,0,0,0,0,0c0,0,0,0,0,0c0,0,0,0,0,0
	c0.2,0.2,0.3,0.4,0.5,0.6c0.7-1.2,1.5-3.3,1.1-6.3c0-0.2,0.2-0.3,0.3-0.1c0.9,1.3,1.5,3.6,1.2,6.1c0,0,0.6-1.4,0.5-3.7
	c0-0.1,0.2-0.2,0.2-0.1C30.7,15.7,27.2,19.8,25.7,21.1z M26.1,16.1c0,0.3-0.2,0.5-0.4,0.5c-0.2,0-0.4-0.2-0.4-0.5
	c0-0.3,0.2-0.5,0.4-0.5C25.9,15.6,26.1,15.8,26.1,16.1z"/>
</svg>
