<svg width="25" height="26" viewBox="0 0 25 26" fill="none" xmlns="http://www.w3.org/2000/svg">
<circle cx="12.5" cy="13" r="12.5" fill="white"/>
<path d="M9.375 10.7681C9.375 10.3171 9.52115 9.86135 9.81344 9.40086C10.1057 8.93562 10.5322 8.55108 11.0928 8.24725C11.6534 7.94342 12.3075 7.7915 13.055 7.7915C13.7498 7.7915 14.3631 7.91968 14.895 8.17604C15.4269 8.42765 15.8366 8.77183 16.1241 9.20859C16.4164 9.64535 16.5625 10.1201 16.5625 10.6328C16.5625 11.0363 16.4786 11.39 16.3109 11.6938C16.148 11.9977 15.9516 12.2611 15.7216 12.4843C15.4964 12.7026 15.0891 13.0729 14.4997 13.5951C14.3368 13.7423 14.205 13.8729 14.1044 13.9868C14.0085 14.096 13.9367 14.1981 13.8888 14.293C13.8408 14.3832 13.8025 14.4758 13.7738 14.5707C13.7498 14.6609 13.7115 14.8223 13.6588 15.055C13.5677 15.5487 13.2826 15.7955 12.8034 15.7955C12.5543 15.7955 12.3434 15.7148 12.1709 15.5534C12.0032 15.392 11.9194 15.1523 11.9194 14.8342C11.9194 14.4354 11.9817 14.0912 12.1063 13.8017C12.2308 13.5073 12.3961 13.251 12.6022 13.0326C12.8082 12.8095 13.0861 12.546 13.4359 12.2422C13.7426 11.9763 13.963 11.7769 14.0972 11.644C14.2361 11.5063 14.3511 11.3544 14.4422 11.1882C14.538 11.0221 14.5859 10.8417 14.5859 10.647C14.5859 10.2673 14.4422 9.9468 14.1547 9.6857C13.872 9.42459 13.5054 9.29404 13.055 9.29404C12.5279 9.29404 12.1398 9.42697 11.8906 9.69282C11.6415 9.95393 11.4306 10.3408 11.2581 10.8535C11.0952 11.39 10.7861 11.6582 10.3309 11.6582C10.0626 11.6582 9.835 11.5657 9.64813 11.3805C9.46604 11.1906 9.375 10.9865 9.375 10.7681ZM12.8825 18.5728C12.5902 18.5728 12.3339 18.4802 12.1134 18.295C11.8978 18.1051 11.79 17.8417 11.79 17.5046C11.79 17.2055 11.8954 16.9539 12.1063 16.7498C12.3171 16.5456 12.5758 16.4436 12.8825 16.4436C13.1844 16.4436 13.4383 16.5456 13.6444 16.7498C13.8504 16.9539 13.9534 17.2055 13.9534 17.5046C13.9534 17.8369 13.8456 18.098 13.63 18.2879C13.4144 18.4778 13.1652 18.5728 12.8825 18.5728Z" fill="#F29F05"/>
</svg>
